<mxfile host="app.diagrams.net" modified="2023-08-31T20:54:36.481Z" agent="Mozilla/5.0 (Windows NT 10.0; Win64; x64) AppleWebKit/537.36 (KHTML, like Gecko) Chrome/114.0.0.0 Safari/537.36 OPR/100.0.0.0" etag="wE8qXykCNU9aMlkuC5ld" version="21.7.1" type="github">
  <diagram name="PÃ¡gina-1" id="6Qantz0VoZ0_T7V_tYev">
    <mxGraphModel dx="793" dy="455" grid="1" gridSize="10" guides="1" tooltips="1" connect="1" arrows="1" fold="1" page="1" pageScale="1" pageWidth="1920" pageHeight="1200" math="0" shadow="0">
      <root>
        <mxCell id="0" />
        <mxCell id="1" parent="0" />
        <mxCell id="ZFLPJwySdcqMTgecmooD-1" value="AGENCIA" style="rounded=0;whiteSpace=wrap;html=1;fillColor=#e1d5e7;strokeColor=#9673a6;fontStyle=1" vertex="1" parent="1">
          <mxGeometry x="990" y="530" width="90" height="40" as="geometry" />
        </mxCell>
        <mxCell id="ZFLPJwySdcqMTgecmooD-2" value="CLIENTE" style="rounded=0;whiteSpace=wrap;html=1;fillColor=#e1d5e7;strokeColor=#9673a6;fontStyle=1" vertex="1" parent="1">
          <mxGeometry x="740" y="730" width="90" height="40" as="geometry" />
        </mxCell>
        <mxCell id="ZFLPJwySdcqMTgecmooD-4" value="GARAJE" style="rounded=0;whiteSpace=wrap;html=1;fillColor=#e1d5e7;strokeColor=#9673a6;fontStyle=1" vertex="1" parent="1">
          <mxGeometry x="740" y="330" width="90" height="40" as="geometry" />
        </mxCell>
        <mxCell id="ZFLPJwySdcqMTgecmooD-5" value="CIUDAD" style="rounded=0;whiteSpace=wrap;html=1;fillColor=#e1d5e7;strokeColor=#9673a6;fontStyle=1" vertex="1" parent="1">
          <mxGeometry x="1250" y="320" width="90" height="40" as="geometry" />
        </mxCell>
        <mxCell id="ZFLPJwySdcqMTgecmooD-6" value="MOTOCICLETA" style="rounded=0;whiteSpace=wrap;html=1;fillColor=#e1d5e7;strokeColor=#9673a6;fontStyle=1" vertex="1" parent="1">
          <mxGeometry x="1250" y="730" width="100" height="40" as="geometry" />
        </mxCell>
        <mxCell id="ZFLPJwySdcqMTgecmooD-7" value="nombre" style="ellipse;whiteSpace=wrap;html=1;fillColor=#eeeeee;strokeColor=#36393d;" vertex="1" parent="1">
          <mxGeometry x="930" y="590" width="60" height="30" as="geometry" />
        </mxCell>
        <mxCell id="ZFLPJwySdcqMTgecmooD-8" value="id" style="ellipse;whiteSpace=wrap;html=1;fillColor=#eeeeee;strokeColor=#36393d;" vertex="1" parent="1">
          <mxGeometry x="990" y="610" width="40" height="30" as="geometry" />
        </mxCell>
        <mxCell id="ZFLPJwySdcqMTgecmooD-9" value="direccion" style="ellipse;whiteSpace=wrap;html=1;fillColor=#eeeeee;strokeColor=#36393d;" vertex="1" parent="1">
          <mxGeometry x="1040" y="610" width="60" height="30" as="geometry" />
        </mxCell>
        <mxCell id="ZFLPJwySdcqMTgecmooD-10" value="calle" style="ellipse;whiteSpace=wrap;html=1;fillColor=#eeeeee;strokeColor=#36393d;" vertex="1" parent="1">
          <mxGeometry x="1070" y="660" width="50" height="30" as="geometry" />
        </mxCell>
        <mxCell id="ZFLPJwySdcqMTgecmooD-11" value="num" style="ellipse;whiteSpace=wrap;html=1;fillColor=#eeeeee;strokeColor=#36393d;" vertex="1" parent="1">
          <mxGeometry x="1010" y="660" width="50" height="30" as="geometry" />
        </mxCell>
        <mxCell id="ZFLPJwySdcqMTgecmooD-13" value="telefono" style="ellipse;whiteSpace=wrap;html=1;fillColor=#eeeeee;strokeColor=#36393d;" vertex="1" parent="1">
          <mxGeometry x="1095" y="580" width="60" height="30" as="geometry" />
        </mxCell>
        <mxCell id="ZFLPJwySdcqMTgecmooD-14" value="poblacion" style="ellipse;whiteSpace=wrap;html=1;fillColor=#eeeeee;strokeColor=#36393d;" vertex="1" parent="1">
          <mxGeometry x="1120" y="640" width="60" height="30" as="geometry" />
        </mxCell>
        <mxCell id="ZFLPJwySdcqMTgecmooD-16" value="" style="endArrow=none;html=1;rounded=0;entryX=0.5;entryY=1;entryDx=0;entryDy=0;exitX=1;exitY=0;exitDx=0;exitDy=0;" edge="1" parent="1" source="ZFLPJwySdcqMTgecmooD-7" target="ZFLPJwySdcqMTgecmooD-1">
          <mxGeometry width="50" height="50" relative="1" as="geometry">
            <mxPoint x="950" y="530" as="sourcePoint" />
            <mxPoint x="1000" y="480" as="targetPoint" />
          </mxGeometry>
        </mxCell>
        <mxCell id="ZFLPJwySdcqMTgecmooD-17" value="" style="endArrow=none;html=1;rounded=0;entryX=0.5;entryY=1;entryDx=0;entryDy=0;exitX=0.5;exitY=0;exitDx=0;exitDy=0;" edge="1" parent="1" source="ZFLPJwySdcqMTgecmooD-8" target="ZFLPJwySdcqMTgecmooD-1">
          <mxGeometry width="50" height="50" relative="1" as="geometry">
            <mxPoint x="1000" y="620" as="sourcePoint" />
            <mxPoint x="1045" y="580" as="targetPoint" />
          </mxGeometry>
        </mxCell>
        <mxCell id="ZFLPJwySdcqMTgecmooD-18" value="" style="endArrow=none;html=1;rounded=0;entryX=0.5;entryY=1;entryDx=0;entryDy=0;exitX=0;exitY=0;exitDx=0;exitDy=0;" edge="1" parent="1" source="ZFLPJwySdcqMTgecmooD-9" target="ZFLPJwySdcqMTgecmooD-1">
          <mxGeometry width="50" height="50" relative="1" as="geometry">
            <mxPoint x="1060" y="640" as="sourcePoint" />
            <mxPoint x="1045" y="580" as="targetPoint" />
          </mxGeometry>
        </mxCell>
        <mxCell id="ZFLPJwySdcqMTgecmooD-19" value="" style="endArrow=none;html=1;rounded=0;entryX=0.5;entryY=1;entryDx=0;entryDy=0;exitX=0;exitY=0;exitDx=0;exitDy=0;" edge="1" parent="1" source="ZFLPJwySdcqMTgecmooD-13" target="ZFLPJwySdcqMTgecmooD-1">
          <mxGeometry width="50" height="50" relative="1" as="geometry">
            <mxPoint x="1109" y="614" as="sourcePoint" />
            <mxPoint x="1045" y="580" as="targetPoint" />
          </mxGeometry>
        </mxCell>
        <mxCell id="ZFLPJwySdcqMTgecmooD-20" value="" style="endArrow=none;html=1;rounded=0;entryX=0.5;entryY=1;entryDx=0;entryDy=0;exitX=0;exitY=0;exitDx=0;exitDy=0;" edge="1" parent="1" source="ZFLPJwySdcqMTgecmooD-10" target="ZFLPJwySdcqMTgecmooD-9">
          <mxGeometry width="50" height="50" relative="1" as="geometry">
            <mxPoint x="1059" y="624" as="sourcePoint" />
            <mxPoint x="1045" y="580" as="targetPoint" />
          </mxGeometry>
        </mxCell>
        <mxCell id="ZFLPJwySdcqMTgecmooD-21" value="" style="endArrow=none;html=1;rounded=0;entryX=0.5;entryY=1;entryDx=0;entryDy=0;exitX=0.5;exitY=0;exitDx=0;exitDy=0;" edge="1" parent="1" source="ZFLPJwySdcqMTgecmooD-11" target="ZFLPJwySdcqMTgecmooD-9">
          <mxGeometry width="50" height="50" relative="1" as="geometry">
            <mxPoint x="1087" y="674" as="sourcePoint" />
            <mxPoint x="1080" y="650" as="targetPoint" />
          </mxGeometry>
        </mxCell>
        <mxCell id="ZFLPJwySdcqMTgecmooD-22" value="" style="endArrow=none;html=1;rounded=0;entryX=0.5;entryY=1;entryDx=0;entryDy=0;exitX=0;exitY=0;exitDx=0;exitDy=0;" edge="1" parent="1" source="ZFLPJwySdcqMTgecmooD-14" target="ZFLPJwySdcqMTgecmooD-9">
          <mxGeometry width="50" height="50" relative="1" as="geometry">
            <mxPoint x="1205" y="650" as="sourcePoint" />
            <mxPoint x="1080" y="650" as="targetPoint" />
          </mxGeometry>
        </mxCell>
        <mxCell id="ZFLPJwySdcqMTgecmooD-23" value="" style="ellipse;whiteSpace=wrap;html=1;fillColor=none;" vertex="1" parent="1">
          <mxGeometry x="1092.5" y="575" width="65" height="40" as="geometry" />
        </mxCell>
      </root>
    </mxGraphModel>
  </diagram>
</mxfile>
